<svg width="24" height="17" viewBox="0 0 24 17" fill="none" xmlns="http://www.w3.org/2000/svg">
<path d="M22.35 6.64944H0.721C0.529941 6.65004 0.346859 6.73713 0.211759 6.89167C0.0766596 7.04622 0.00052779 7.25564 0 7.4742L0 9.12371C0.00052779 9.34226 0.0766596 9.55169 0.211759 9.70623C0.346859 9.86077 0.529941 9.94786 0.721 9.94847H22.35C22.5411 9.94786 22.7241 9.86077 22.8592 9.70623C22.9943 9.55169 23.0705 9.34226 23.071 9.12371V7.4742C23.0705 7.25564 22.9943 7.04622 22.8592 6.89167C22.7241 6.73713 22.5411 6.65004 22.35 6.64944ZM22.35 0.0513916H0.721C0.529941 0.0519953 0.346859 0.139082 0.211759 0.293624C0.0766596 0.448165 0.00052779 0.657594 0 0.876148L0 2.52566C0.00052779 2.74421 0.0766596 2.95364 0.211759 3.10818C0.346859 3.26273 0.529941 3.34981 0.721 3.35042H22.35C22.5411 3.34981 22.7241 3.26273 22.8592 3.10818C22.9943 2.95364 23.0705 2.74421 23.071 2.52566V0.876148C23.0705 0.657594 22.9943 0.448165 22.8592 0.293624C22.7241 0.139082 22.5411 0.0519953 22.35 0.0513916Z" fill="#1DC76D"/>
<path d="M22.35 13.2475H0.721C0.529941 13.2481 0.346859 13.3352 0.211759 13.4897C0.0766596 13.6443 0.00052779 13.8537 0 14.0723L0 15.7218C0.00052779 15.9403 0.0766596 16.1498 0.211759 16.3043C0.346859 16.4588 0.529941 16.5459 0.721 16.5465H22.35C22.5411 16.5459 22.7241 16.4588 22.8592 16.3043C22.9943 16.1498 23.0705 15.9403 23.071 15.7218V14.0723C23.0705 13.8537 22.9943 13.6443 22.8592 13.4897C22.7241 13.3352 22.5411 13.2481 22.35 13.2475Z" fill="#1DC76D"/>
</svg>
