<svg width="18" height="23" viewBox="0 0 18 23" fill="none" xmlns="http://www.w3.org/2000/svg">
<path d="M7.7 22.426C1.206 13.01 0 12.043 0 8.583C0 6.30665 0.904278 4.12353 2.5139 2.5139C4.12353 0.904278 6.30665 0 8.583 0C10.8594 0 13.0425 0.904278 14.6521 2.5139C16.2617 4.12353 17.166 6.30665 17.166 8.583C17.166 12.044 15.96 13.01 9.466 22.426C9.36725 22.5685 9.23543 22.685 9.08182 22.7655C8.92821 22.8459 8.7574 22.8879 8.584 22.8879C8.4106 22.8879 8.23979 22.8459 8.08618 22.7655C7.93257 22.685 7.80075 22.5685 7.702 22.426H7.7ZM8.582 12.159C9.28931 12.1592 9.98079 11.9496 10.569 11.5568C11.1572 11.164 11.6157 10.6056 11.8865 9.95217C12.1573 9.29876 12.2283 8.57971 12.0904 7.88597C11.9525 7.19223 11.612 6.55495 11.112 6.05474C10.6119 5.55453 9.97471 5.21385 9.28101 5.07579C8.58731 4.93772 7.86824 5.00848 7.21476 5.27911C6.56127 5.54974 6.00271 6.00809 5.60973 6.59618C5.21675 7.18427 5.007 7.87569 5.007 8.583C5.007 9.53141 5.38376 10.441 6.05439 11.1116C6.72502 11.7822 7.63459 12.159 8.583 12.159H8.582Z" fill="#6222E2"/>
</svg>
