<svg width="20" height="19" viewBox="0 0 20 19" fill="none" xmlns="http://www.w3.org/2000/svg">
<path d="M17.9729 9.456C17.9734 8.96422 18.1227 8.48411 18.4014 8.0789C18.68 7.67369 19.0749 7.36238 19.5339 7.186C19.2963 6.1928 18.9024 5.24365 18.3669 4.374C18.0552 4.51238 17.7181 4.58457 17.3769 4.586C16.9717 4.58667 16.5728 4.4859 16.2165 4.29288C15.8601 4.09987 15.5578 3.82074 15.337 3.48094C15.1162 3.14115 14.984 2.75149 14.9524 2.3475C14.9207 1.9435 14.9907 1.53802 15.1559 1.168C14.2878 0.632196 13.34 0.237934 12.3479 0C12.1721 0.459622 11.8609 0.855053 11.4555 1.13401C11.0501 1.41297 10.5696 1.56233 10.0774 1.56233C9.58534 1.56233 9.10481 1.41297 8.6994 1.13401C8.29399 0.855053 7.9828 0.459622 7.80695 0C6.81375 0.237691 5.8646 0.631596 4.99495 1.167C5.16018 1.53701 5.23017 1.9425 5.19855 2.3465C5.16692 2.75049 5.03468 3.14015 4.81388 3.47994C4.59309 3.81974 4.29075 4.09887 3.93444 4.29188C3.57813 4.4849 3.17918 4.58567 2.77395 4.585C2.43258 4.58597 2.09498 4.51367 1.78395 4.373C1.25296 5.2461 0.860949 6.19645 0.621948 7.19C1.08074 7.36666 1.47525 7.67816 1.7535 8.08347C2.03176 8.48878 2.1807 8.96887 2.1807 9.4605C2.1807 9.95213 2.03176 10.4322 1.7535 10.8375C1.47525 11.2428 1.08074 11.5543 0.621948 11.731C0.859639 12.7242 1.25354 13.6734 1.78895 14.543C2.23759 14.3437 2.73609 14.285 3.21876 14.3746C3.70143 14.4643 4.1456 14.6981 4.49274 15.0452C4.83987 15.3923 5.07367 15.8365 5.16333 16.3192C5.25298 16.8019 5.19427 17.3004 4.99495 17.749C5.86501 18.2836 6.81403 18.6774 7.80695 18.916C7.98296 18.458 8.29368 18.064 8.69812 17.7861C9.10257 17.5083 9.58175 17.3595 10.0724 17.3595C10.5631 17.3595 11.0423 17.5083 11.4468 17.7861C11.8512 18.064 12.1619 18.458 12.3379 18.916C13.3311 18.6783 14.2803 18.2844 15.1499 17.749C14.9523 17.3004 14.8949 16.8025 14.9852 16.3207C15.0755 15.8389 15.3093 15.3956 15.6559 15.049C16.0026 14.7023 16.4458 14.4686 16.9277 14.3783C17.4095 14.288 17.9073 14.3454 18.3559 14.543C18.8905 13.6729 19.2844 12.7239 19.5229 11.731C19.066 11.5513 18.6738 11.2381 18.3974 10.8324C18.1209 10.4266 17.973 9.947 17.9729 9.456ZM10.1219 13.391C9.34269 13.391 8.58093 13.1599 7.933 12.727C7.28507 12.2941 6.78007 11.6787 6.48186 10.9588C6.18365 10.2388 6.10563 9.44663 6.25765 8.68234C6.40968 7.91806 6.78493 7.21602 7.33595 6.665C7.88697 6.11398 8.58901 5.73873 9.35329 5.58671C10.1176 5.43468 10.9098 5.51271 11.6297 5.81091C12.3497 6.10912 12.965 6.61412 13.3979 7.26205C13.8309 7.90998 14.0619 8.67174 14.0619 9.451C14.0621 9.96845 13.9603 10.4808 13.7623 10.9589C13.5643 11.437 13.2741 11.8714 12.9082 12.2373C12.5424 12.6032 12.108 12.8934 11.6299 13.0914C11.1518 13.2893 10.6394 13.3911 10.1219 13.391Z" fill="#1DC76D"/>
</svg>
