<svg width="18" height="18" viewBox="0 0 18 18" fill="none" xmlns="http://www.w3.org/2000/svg">
<path d="M16.949 14.858L13.6 11.512C13.5252 11.437 13.4361 11.3775 13.3381 11.3372C13.2401 11.2969 13.135 11.2764 13.029 11.277H12.482C13.575 9.87642 14.0927 8.11167 13.9294 6.34258C13.7661 4.57349 12.9342 2.9333 11.6033 1.75645C10.2723 0.579596 8.54265 -0.04529 6.76688 0.00920734C4.99111 0.0637046 3.30299 0.793481 2.04674 2.04973C0.79049 3.30598 0.0607139 4.9941 0.00621661 6.76987C-0.0482807 8.54565 0.576605 10.2753 1.75346 11.6063C2.93031 12.9372 4.5705 13.7691 6.33959 13.9324C8.10868 14.0957 9.87343 13.578 11.274 12.485V13.032C11.2734 13.138 11.2939 13.2431 11.3342 13.3411C11.3745 13.4391 11.434 13.5281 11.509 13.603L14.855 16.949C14.9294 17.0243 15.018 17.0841 15.1157 17.1249C15.2134 17.1657 15.3182 17.1867 15.424 17.1867C15.5299 17.1867 15.6347 17.1657 15.7323 17.1249C15.83 17.0841 15.9186 17.0243 15.993 16.949L16.943 15.999C17.0938 15.8474 17.1784 15.6423 17.1784 15.4285C17.1784 15.2147 17.0938 15.0096 16.943 14.858H16.949ZM6.98102 11.277C6.13056 11.277 5.2992 11.0248 4.59206 10.5523C3.88493 10.0798 3.33379 9.40827 3.00833 8.62255C2.68288 7.83682 2.59772 6.97224 2.76364 6.13812C2.92956 5.304 3.33909 4.53781 3.94046 3.93645C4.54182 3.33508 5.30801 2.92555 6.14213 2.75963C6.97625 2.59371 7.84083 2.67887 8.62656 3.00432C9.41228 3.32978 10.0838 3.88092 10.5563 4.58806C11.0288 5.29519 11.281 6.12655 11.281 6.97701C11.2818 7.54191 11.1711 8.10142 10.9553 8.62348C10.7395 9.14554 10.4228 9.61988 10.0233 10.0193C9.62389 10.4188 9.14955 10.7355 8.62749 10.9513C8.10543 11.1671 7.54592 11.2778 6.98102 11.277Z" fill="#1DC76D"/>
</svg>
