<svg width="18" height="24" viewBox="0 0 18 24" fill="none" xmlns="http://www.w3.org/2000/svg">
<path d="M9.943 1.583C9.94147 1.35137 9.86545 1.12639 9.72617 0.941311C9.5869 0.756233 9.39176 0.620887 9.16961 0.555286C8.94747 0.489686 8.71011 0.497313 8.49263 0.577039C8.27516 0.656766 8.08911 0.804361 7.962 0.997998C2.404 9.122 10.302 9.488 10.302 13.437C10.2992 13.8142 10.2221 14.1871 10.0752 14.5344C9.92821 14.8818 9.71429 15.1968 9.44561 15.4615C9.17692 15.7262 8.85873 15.9354 8.5092 16.0771C8.15968 16.2188 7.78566 16.2903 7.4085 16.2875C7.03134 16.2847 6.65844 16.2076 6.31107 16.0607C5.9637 15.9137 5.64868 15.6998 5.38399 15.4311C4.84941 14.8885 4.5523 14.1557 4.558 13.394V9.556C4.55869 9.3402 4.49454 9.12916 4.37386 8.95026C4.25318 8.77135 4.08153 8.63283 3.88118 8.55264C3.68082 8.47246 3.461 8.45431 3.25021 8.50056C3.03942 8.5468 2.84738 8.6553 2.699 8.812C1.14983 10.4523 0.27543 12.6159 0.25 14.872C0.25 17.1571 1.15775 19.3486 2.77357 20.9644C4.38938 22.5802 6.58089 23.488 8.866 23.488C11.1511 23.488 13.3426 22.5802 14.9584 20.9644C16.5742 19.3486 17.482 17.1571 17.482 14.872C17.482 7.23 9.943 6.211 9.943 1.583Z" fill="#1DC76D"/>
</svg>
