<svg width="27" height="24" viewBox="0 0 27 24" fill="none" xmlns="http://www.w3.org/2000/svg">
<path d="M24.011 14.034L26.132 4.69999C26.1679 4.5423 26.1678 4.37854 26.1318 4.22088C26.0957 4.06322 26.0246 3.91571 25.9238 3.78929C25.8229 3.66287 25.6948 3.56079 25.5491 3.49063C25.4034 3.42046 25.2438 3.38402 25.082 3.38399H7.45604L7.04403 1.37299C6.99427 1.12992 6.86211 0.911476 6.66988 0.754597C6.47765 0.597717 6.23715 0.512021 5.98904 0.511994H1.38904C1.24752 0.511862 1.10736 0.539623 0.976578 0.593688C0.845795 0.647754 0.726949 0.727064 0.626835 0.827086C0.52672 0.927108 0.447299 1.04588 0.393112 1.17661C0.338926 1.30735 0.311035 1.44748 0.311035 1.58899V2.31199C0.312357 2.59676 0.42641 2.86942 0.628243 3.07032C0.830077 3.27121 1.10326 3.384 1.38804 3.38399H4.52403L7.67603 18.796C7.21941 19.0581 6.85662 19.4569 6.63888 19.9363C6.42114 20.4156 6.35944 20.9512 6.46251 21.4675C6.56558 21.9838 6.8282 22.4547 7.21329 22.8137C7.59839 23.1727 8.08652 23.4017 8.60876 23.4683C9.13101 23.535 9.661 23.4359 10.1239 23.1852C10.5868 22.9344 10.9593 22.5445 11.1887 22.0707C11.4182 21.5968 11.493 21.0629 11.4026 20.5442C11.3122 20.0255 11.0612 19.5483 10.685 19.18H20.093C19.712 19.5536 19.4598 20.0389 19.3731 20.5655C19.2864 21.0921 19.3697 21.6327 19.6108 22.1088C19.852 22.5849 20.2385 22.9718 20.7144 23.2134C21.1902 23.455 21.7307 23.5388 22.2574 23.4527C22.7841 23.3665 23.2696 23.1148 23.6436 22.7341C24.0177 22.3534 24.2607 21.8635 24.3376 21.3353C24.4144 20.8072 24.3211 20.2683 24.071 19.7968C23.821 19.3253 23.4273 18.9457 22.947 18.713L23.195 17.624C23.2309 17.4663 23.2308 17.3025 23.1948 17.1449C23.1587 16.9872 23.0876 16.8397 22.9868 16.7133C22.8859 16.5869 22.7578 16.4848 22.6121 16.4146C22.4664 16.3445 22.3068 16.308 22.145 16.308H10.099L9.80504 14.872H22.96C23.2043 14.8722 23.4413 14.7894 23.6323 14.6371C23.8233 14.4848 23.9568 14.2722 24.011 14.034Z" fill="#1DC76D"/>
</svg>
