<svg width="18" height="18" viewBox="0 0 18 18" fill="none" xmlns="http://www.w3.org/2000/svg">
<path d="M8.616 8.616C9.46804 8.616 10.3009 8.36334 11.0094 7.88997C11.7178 7.4166 12.27 6.74379 12.5961 5.9566C12.9221 5.16942 13.0074 4.30322 12.8412 3.46755C12.675 2.63188 12.2647 1.86427 11.6622 1.26179C11.0597 0.659301 10.2921 0.249004 9.45645 0.0827789C8.62078 -0.0834462 7.75458 0.0018667 6.9674 0.327929C6.18022 0.653991 5.5074 1.20616 5.03403 1.91461C4.56066 2.62305 4.308 3.45596 4.308 4.308C4.31143 5.4495 4.76641 6.54326 5.57357 7.35043C6.38074 8.15759 7.4745 8.61257 8.616 8.616ZM8.616 10.77C5.762 10.77 0 12.224 0 15.078V17.232H17.232V15.078C17.232 12.224 11.47 10.77 8.616 10.77Z" fill="#1DC76D"/>
</svg>
