<svg width="17" height="18" viewBox="0 0 17 18" fill="none" xmlns="http://www.w3.org/2000/svg">
<path d="M16.4759 13.943L11.4289 8.89799L16.4759 3.85599C16.5731 3.75835 16.6276 3.62622 16.6276 3.48849C16.6276 3.35075 16.5731 3.21862 16.4759 3.12099L14.0929 0.735986C13.9953 0.638831 13.8632 0.58429 13.7254 0.58429C13.5877 0.58429 13.4556 0.638831 13.3579 0.735986L8.31394 5.77999L3.26894 0.735986C3.17131 0.638831 3.03918 0.58429 2.90144 0.58429C2.7637 0.58429 2.63157 0.638831 2.53394 0.735986L0.151941 3.11899C0.0547856 3.21662 0.000244141 3.34875 0.000244141 3.48649C0.000244141 3.62422 0.0547856 3.75635 0.151941 3.85399L5.19594 8.89799L0.151941 13.943C0.0547856 14.0406 0.000244141 14.1728 0.000244141 14.3105C0.000244141 14.4482 0.0547856 14.5804 0.151941 14.678L2.53494 17.056C2.63257 17.1531 2.7647 17.2077 2.90244 17.2077C3.04018 17.2077 3.17231 17.1531 3.26994 17.056L8.31394 12.012L13.3579 17.056C13.4556 17.1531 13.5877 17.2077 13.7254 17.2077C13.8632 17.2077 13.9953 17.1531 14.0929 17.056L16.4759 14.673C16.5731 14.5754 16.6276 14.4432 16.6276 14.3055C16.6276 14.1678 16.5731 14.0356 16.4759 13.938V13.943Z" fill="#1DC76D"/>
</svg>
